<svg width="25" height="23" viewBox="0 0 25 23" fill="none" xmlns="http://www.w3.org/2000/svg">
<g clip-path="url(#clip0_1_132)">
<path d="M14.778 17.9937C13.5301 17.9937 12.5011 18.9999 12.5011 20.2687C12.5011 21.5156 13.5082 22.5438 14.778 22.5438C16.0259 22.5438 17.0549 21.5375 17.0549 20.2687C17.033 19.0218 16.0259 17.9937 14.778 17.9937Z" fill="#FFAD4C"/>
<path d="M18.7845 7.14395C18.7407 7.14395 18.675 7.12207 18.6093 7.12207H4.81654L4.5976 5.65641C4.46624 4.69388 3.6343 3.97198 2.64909 3.97198H0.875734C0.39408 3.97198 0 4.36575 0 4.84701C0 5.32827 0.39408 5.72203 0.875734 5.72203H2.64909C2.75856 5.72203 2.84614 5.80953 2.86803 5.91891L4.22542 15.1504C4.40056 16.3098 5.40766 17.1848 6.5899 17.1848H15.6975C16.836 17.1848 17.8212 16.3754 18.062 15.2598L19.4851 8.15022C19.5727 7.69084 19.2661 7.23145 18.7845 7.14395Z" fill="#FFAD4C"/>
<path d="M9.19517 20.1593C9.15139 18.9562 8.14429 17.9937 6.94016 17.9937C5.67035 18.0593 4.70704 19.1093 4.75082 20.3562C4.79461 21.5594 5.77981 22.5219 6.98395 22.5219H7.02773C8.27565 22.4563 9.26085 21.4062 9.19517 20.1593Z" fill="#FFAD4C"/>
</g>
<ellipse cx="18" cy="7.26271" rx="6" ry="5.99513" fill="#FFAD4C" stroke="#FEF7EF" stroke-width="2"/>
<path d="M18.6737 7.30664H20.9003V8.60742H18.6737V11.1445H17.2909V8.60742H15.0526V7.30664H17.2909V4.93359H18.6737V7.30664Z" fill="#FEF7EF"/>
<defs>
<clipPath id="clip0_1_132">
<rect width="19.5" height="19.4842" fill="white" transform="translate(0 3.51578)"/>
</clipPath>
</defs>
</svg>
